<?xml version="1.0" encoding="utf-8"?>
<!-- Generator: Adobe Illustrator 15.1.0, SVG Export Plug-In . SVG Version: 6.00 Build 0)  -->
<!DOCTYPE svg PUBLIC "-//W3C//DTD SVG 1.1//EN" "http://www.w3.org/Graphics/SVG/1.1/DTD/svg11.dtd">
<svg version="1.1"
	 id="svg2985" xmlns:dc="http://purl.org/dc/elements/1.1/" xmlns:cc="http://creativecommons.org/ns#" xmlns:rdf="http://www.w3.org/1999/02/22-rdf-syntax-ns#" xmlns:svg="http://www.w3.org/2000/svg" xmlns:sodipodi="http://sodipodi.sourceforge.net/DTD/sodipodi-0.dtd" xmlns:inkscape="http://www.inkscape.org/namespaces/inkscape" inkscape:version="0.48.1 " sodipodi:docname="cse.JPG"
	 xmlns="http://www.w3.org/2000/svg" xmlns:xlink="http://www.w3.org/1999/xlink" x="0px" y="0px" width="1467.305px"
	 height="1629px" viewBox="-13.156 -11.003 1467.305 1629" enable-background="new -13.156 -11.003 1467.305 1629"
	 xml:space="preserve">
<sodipodi:namedview  id="namedview2987" bordercolor="#666666" pagecolor="#ffffff" inkscape:cy="1655.1088" guidetolerance="10" gridtolerance="10" inkscape:cx="901.0293" objecttolerance="10" inkscape:zoom="0.11313708" borderopacity="1" showgrid="false" inkscape:current-layer="svg2985" inkscape:window-y="50" inkscape:window-x="50" inkscape:window-height="641" inkscape:window-width="831" inkscape:pageshadow="2" inkscape:pageopacity="0" inkscape:window-maximized="0">
	</sodipodi:namedview>
<path id="path3008_1_" inkscape:connector-curvature="0" fill="#FFFFFF" stroke="#FFFFFF" stroke-width="30" stroke-miterlimit="10" d="
	M720.014,1602.997c-0.19,0-0.496-0.338-0.679-0.75c-0.184-0.412-2.727-2.213-5.65-4s-5.497-3.25-5.719-3.25
	s-3.904-2.245-8.184-4.989c-4.279-2.745-8.324-5.445-8.989-6c-0.664-0.556-1.451-1.011-1.748-1.011
	c-0.298,0-8.754-5.54-18.792-12.31c-10.038-6.771-22.077-14.976-26.752-18.232s-12.325-8.749-17-12.205s-11.586-8.64-15.357-11.519
	s-9.438-7.26-12.591-9.734s-7.21-5.622-9.016-6.993c-1.805-1.372-6.96-5.422-11.457-9c-4.496-3.579-10.841-8.757-14.099-11.507
	s-7.061-5.968-8.452-7.149c-1.391-1.183-8.153-6.979-15.028-12.882c-6.875-5.903-15.858-13.711-19.963-17.351
	c-4.105-3.64-13.967-12.693-21.916-20.118c-7.948-7.425-24.614-23.667-37.036-36.093s-28.435-28.879-35.585-36.563
	c-7.149-7.684-16.375-17.742-20.5-22.352s-9.116-10.206-11.092-12.437c-1.975-2.231-4.675-5.367-6-6.968
	c-1.324-1.602-5.783-6.801-9.908-11.554c-4.125-4.754-9.075-10.621-11-13.04c-1.925-2.418-4.661-5.769-6.08-7.446
	c-1.419-1.677-7.963-9.799-14.542-18.049s-17.389-22.2-24.021-31s-16.725-22.525-22.427-30.5
	c-5.702-7.976-18.481-26.712-28.398-41.638s-19.82-30.001-22.009-33.5c-2.188-3.499-7.528-12.213-11.869-19.362
	c-4.34-7.15-8.669-14.351-9.618-16c-0.95-1.65-4.345-7.5-7.544-13c-3.198-5.5-9.136-15.973-13.193-23.272
	c-4.058-7.299-9.839-17.874-12.847-23.5c-3.008-5.625-10.767-20.803-17.242-33.728c-6.477-12.925-14.089-28.45-16.918-34.5
	s-6.691-14.375-8.584-18.5c-1.894-4.125-5.107-11.325-7.143-16s-4.994-11.425-6.574-15c-1.581-3.575-4.526-10.55-6.545-15.5
	c-2.02-4.95-6.368-15.75-9.664-24s-8.256-21.075-11.021-28.5s-6.563-17.775-8.439-23c-1.875-5.226-6.59-18.95-10.477-30.5
	s-7.876-23.7-8.865-27s-4.114-13.65-6.944-23c-2.83-9.351-7.54-25.775-10.467-36.5c-2.927-10.726-5.672-20.851-6.101-22.5
	c-0.429-1.65-0.883-3.45-1.009-4c-0.127-0.55-1.444-5.726-2.927-11.5c-1.483-5.775-2.898-11.543-3.146-12.818
	c-0.247-1.274-1.578-6.899-2.959-12.5c-1.381-5.6-3.845-16.481-5.476-24.182c-1.632-7.7-3.837-18.275-4.901-23.5
	c-1.063-5.226-3.293-16.7-4.954-25.5s-3.505-18.925-4.098-22.5s-1.548-9.2-2.121-12.5c-0.574-3.3-1.204-7.125-1.401-8.5
	c-0.196-1.375-1.093-7.226-1.991-13c-0.898-5.775-2.033-13.2-2.521-16.5c-0.489-3.3-1.131-7.575-1.427-9.5
	c-0.295-1.925-1.244-9.351-2.108-16.5c-0.864-7.15-1.981-16.15-2.482-20c-0.501-3.851-1.596-13.488-2.433-21.419
	c-0.836-7.931-1.749-16.705-2.027-19.5c-0.279-2.795-0.956-10.031-1.506-16.081c-0.549-6.051-1.65-20.676-2.447-32.5
	c-0.798-11.825-1.703-25.101-2.012-29.5c-0.309-4.4-1.014-19.926-1.566-34.5c-0.553-14.575-1.286-38.538-1.631-53.25l-0.625-26.75
	l23.901,0.013l23.9,0.013l19-1.104c10.45-0.607,33.4-2.219,51-3.582c17.601-1.363,35.15-2.851,39-3.306
	c3.851-0.455,15.101-1.797,25-2.981c9.9-1.185,20.25-2.527,23-2.982c2.75-0.456,10.176-1.566,16.5-2.468
	c6.325-0.901,13.525-2.058,16-2.569c2.476-0.512,8.775-1.675,14-2.585c5.226-0.909,17.375-3.214,27-5.122
	c9.625-1.907,26.275-5.512,37-8.011c10.726-2.499,20.851-4.912,22.5-5.363c1.65-0.451,5.925-1.56,9.5-2.463s7.175-1.819,8-2.035
	c0.825-0.217,6.45-1.794,12.5-3.505s12.351-3.487,14-3.948c1.65-0.46,6.15-1.811,10-3.001c3.851-1.191,8.351-2.525,10-2.966
	c1.65-0.44,10.498-3.289,19.662-6.332c9.164-3.042,25.589-8.774,36.5-12.737c10.911-3.964,20.288-7.543,20.838-7.955
	s2.8-1.323,5-2.024s6.334-2.335,9.187-3.631c2.852-1.295,5.464-2.354,5.805-2.354c0.34,0,2.507-0.854,4.813-1.896
	c2.308-1.043,7.12-3.12,10.695-4.615s8.3-3.53,10.5-4.521s10.976-5.022,19.5-8.958c8.525-3.935,24.5-11.792,35.5-17.459
	s27.425-14.565,36.5-19.774s21.129-12.352,26.786-15.873s11.058-6.862,12-7.423c0.943-0.562,3.562-2.214,5.819-3.672
	c2.259-1.458,9.684-6.575,16.5-11.372c6.817-4.797,15.77-11.245,19.895-14.329s8.4-6.356,9.5-7.272
	c1.101-0.916,3.955-3.278,6.345-5.25s4.711-3.584,5.159-3.584s4.118,2.729,8.155,6.063c4.038,3.335,8.016,6.602,8.841,7.259
	s7.575,5.501,15,10.765s17.128,12.011,21.562,14.992s8.934,5.954,10,6.604s7.339,4.532,13.938,8.627
	c6.601,4.094,18.525,11.15,26.5,15.682c7.976,4.531,23.05,12.655,33.5,18.055c10.45,5.398,26.425,13.251,35.5,17.449
	s18.3,8.452,20.5,9.453c2.2,1.002,6.925,3.044,10.5,4.538s8.876,3.796,11.78,5.115c2.903,1.319,5.851,2.398,6.55,2.398
	c0.698,0,1.697,0.395,2.22,0.876c0.523,0.482,3.65,1.852,6.95,3.044c3.3,1.191,7.351,2.768,9,3.503c1.65,0.734,8.851,3.468,16,6.073
	c7.15,2.605,16.375,5.954,20.5,7.442c4.125,1.487,14.7,5.018,23.5,7.845s20.5,6.508,26,8.181s14.05,4.211,19,5.641
	s10.351,2.959,12,3.399c1.65,0.44,9.3,2.397,17,4.35s19.625,4.903,26.5,6.557c6.875,1.654,20.105,4.604,29.401,6.556
	c9.295,1.951,22.12,4.497,28.5,5.657c6.379,1.161,13.624,2.459,16.099,2.886c2.476,0.426,10.575,1.71,18,2.853
	s16.425,2.555,20,3.139s14.15,1.965,23.5,3.068c9.351,1.104,20.601,2.431,25,2.949c4.4,0.519,12.726,1.386,18.5,1.927
	c5.775,0.54,14.101,1.223,18.5,1.516c4.4,0.293,14.525,0.979,22.5,1.527c7.976,0.547,22.15,1.455,31.5,2.017l17,1.022l24.395-0.013
	l24.394-0.014l-0.6,25.25c-0.33,13.887-1.071,38.524-1.648,54.75c-0.577,16.225-1.482,34.899-2.012,41.5
	c-0.529,6.6-1.243,17.399-1.585,24c-0.342,6.6-0.802,13.125-1.021,14.5s-0.867,8.574-1.438,16c-0.571,7.425-1.229,14.85-1.462,16.5
	c-0.232,1.649-0.898,8.175-1.479,14.5s-1.521,15.1-2.091,19.5c-0.568,4.399-1.471,11.375-2.004,15.5s-1.872,14.475-2.976,23
	c-1.104,8.524-2.442,17.975-2.977,21c-0.533,3.024-1.474,9.1-2.089,13.5c-0.614,4.399-1.302,8.899-1.527,10
	c-0.226,1.1-0.829,4.7-1.343,8c-0.513,3.3-1.605,9.825-2.428,14.5s-2.195,12.212-3.052,16.75c-0.856,4.537-2.209,11.737-3.007,16
	c-0.797,4.263-2.87,14.5-4.605,22.75s-3.799,17.925-4.585,21.5s-1.811,8.075-2.275,10s-1.782,7.55-2.927,12.5s-4.521,18.45-7.502,30
	s-6.627,25.5-8.1,31c-1.474,5.5-3.313,12.024-4.087,14.5c-0.774,2.475-3.713,12.149-6.53,21.5c-2.817,9.35-5.573,18.575-6.123,20.5
	s-4.143,12.95-7.983,24.5s-7.353,21.899-7.804,23c-0.451,1.1-2.253,6.05-4.003,11s-4.003,11.25-5.005,14
	c-1.003,2.75-4.614,12.2-8.025,21s-7.982,20.5-10.158,26c-2.175,5.5-6.471,15.85-9.547,23s-8.275,19.075-11.556,26.5
	c-3.279,7.425-7.763,17.325-9.962,22s-9.547,19.75-16.327,33.5c-6.781,13.75-14.97,29.95-18.197,36s-7.938,14.825-10.468,19.5
	s-6.363,11.65-8.521,15.5c-2.156,3.85-6.532,11.5-9.725,17s-10.841,18.325-16.997,28.5s-14.083,23-17.614,28.5
	c-3.532,5.5-11.979,18.325-18.772,28.5s-16.919,24.951-22.501,32.836c-5.583,7.885-17.3,23.859-26.038,35.5
	s-17.509,23.189-19.489,25.664c-1.979,2.475-5.855,7.226-8.611,10.557c-2.757,3.331-6.587,8.032-8.512,10.447
	s-8.213,10.04-13.974,16.943c-5.762,6.904-11.387,13.647-12.5,14.986c-1.114,1.338-4.276,4.974-7.026,8.079
	c-2.75,3.104-8.6,9.651-13,14.548c-4.399,4.896-14.3,15.621-22,23.832c-7.699,8.211-22.584,23.519-33.076,34.019
	c-10.493,10.499-26.018,25.623-34.5,33.61c-8.483,7.986-19.725,18.336-24.981,23c-5.256,4.663-12.646,11.179-16.423,14.479
	s-7.351,6.46-7.942,7.021c-0.592,0.563-6.505,5.512-13.139,11c-6.635,5.488-14.037,11.554-16.451,13.479
	c-2.413,1.925-5.761,4.661-7.438,6.081c-1.678,1.42-6.199,5.012-10.05,7.982c-3.85,2.97-15.111,11.482-25.026,18.918
	s-20.94,15.527-24.5,17.981c-3.561,2.455-7.068,5.043-7.795,5.75c-0.727,0.708-1.707,1.287-2.179,1.287
	c-0.471,0-1.451,0.579-2.179,1.286c-0.727,0.708-8.851,6.333-18.054,12.5c-9.203,6.168-17.153,11.214-17.667,11.214
	s-1.084,0.345-1.267,0.767c-0.184,0.421-3.483,2.694-7.334,5.051c-3.85,2.357-7.888,4.824-8.974,5.484
	c-1.086,0.659-4.605,2.886-7.821,4.948C722.991,1601.309,720.204,1602.997,720.014,1602.997z"/>
<path id="path3008" inkscape:connector-curvature="0" fill="#DD341D" d="M720.014,1602.997c-0.19,0-0.496-0.338-0.679-0.75
	c-0.184-0.412-2.727-2.213-5.65-4s-5.497-3.25-5.719-3.25s-3.904-2.245-8.184-4.989c-4.279-2.745-8.324-5.445-8.989-6
	c-0.664-0.556-1.451-1.011-1.748-1.011c-0.298,0-8.754-5.54-18.792-12.31c-10.038-6.771-22.077-14.976-26.752-18.232
	s-12.325-8.749-17-12.205s-11.586-8.64-15.357-11.519s-9.438-7.26-12.591-9.734s-7.21-5.622-9.016-6.993
	c-1.805-1.372-6.96-5.422-11.457-9c-4.496-3.579-10.841-8.757-14.099-11.507s-7.061-5.968-8.452-7.149
	c-1.391-1.183-8.153-6.979-15.028-12.882c-6.875-5.903-15.858-13.711-19.963-17.351c-4.105-3.64-13.967-12.693-21.916-20.118
	c-7.948-7.425-24.614-23.667-37.036-36.093s-28.435-28.879-35.585-36.563c-7.149-7.684-16.375-17.742-20.5-22.352
	s-9.116-10.206-11.092-12.437c-1.975-2.231-4.675-5.367-6-6.968c-1.324-1.602-5.783-6.801-9.908-11.554
	c-4.125-4.754-9.075-10.621-11-13.04c-1.925-2.418-4.661-5.769-6.08-7.446c-1.419-1.677-7.963-9.799-14.542-18.049
	s-17.389-22.2-24.021-31s-16.725-22.525-22.427-30.5c-5.702-7.976-18.481-26.712-28.398-41.638s-19.82-30.001-22.009-33.5
	c-2.188-3.499-7.528-12.213-11.869-19.362c-4.34-7.15-8.669-14.351-9.618-16c-0.95-1.65-4.345-7.5-7.544-13
	c-3.198-5.5-9.136-15.973-13.193-23.272c-4.058-7.299-9.839-17.874-12.847-23.5c-3.008-5.625-10.767-20.803-17.242-33.728
	c-6.477-12.925-14.089-28.45-16.918-34.5s-6.691-14.375-8.584-18.5c-1.894-4.125-5.107-11.325-7.143-16s-4.994-11.425-6.574-15
	c-1.581-3.575-4.526-10.55-6.545-15.5c-2.02-4.95-6.368-15.75-9.664-24s-8.256-21.075-11.021-28.5s-6.563-17.775-8.439-23
	c-1.875-5.226-6.59-18.95-10.477-30.5s-7.876-23.7-8.865-27s-4.114-13.65-6.944-23c-2.83-9.351-7.54-25.775-10.467-36.5
	c-2.927-10.726-5.672-20.851-6.101-22.5c-0.429-1.65-0.883-3.45-1.009-4c-0.127-0.55-1.444-5.726-2.927-11.5
	c-1.483-5.775-2.898-11.543-3.146-12.818c-0.247-1.274-1.578-6.899-2.959-12.5c-1.381-5.6-3.845-16.481-5.476-24.182
	c-1.632-7.7-3.837-18.275-4.901-23.5c-1.063-5.226-3.293-16.7-4.954-25.5s-3.505-18.925-4.098-22.5s-1.548-9.2-2.121-12.5
	c-0.574-3.3-1.204-7.125-1.401-8.5c-0.196-1.375-1.093-7.226-1.991-13c-0.898-5.775-2.033-13.2-2.521-16.5
	c-0.489-3.3-1.131-7.575-1.427-9.5c-0.295-1.925-1.244-9.351-2.108-16.5c-0.864-7.15-1.981-16.15-2.482-20
	c-0.501-3.851-1.596-13.488-2.433-21.419c-0.836-7.931-1.749-16.705-2.027-19.5c-0.279-2.795-0.956-10.031-1.506-16.081
	c-0.549-6.051-1.65-20.676-2.447-32.5c-0.798-11.825-1.703-25.101-2.012-29.5c-0.309-4.4-1.014-19.926-1.566-34.5
	c-0.553-14.575-1.286-38.538-1.631-53.25l-0.625-26.75l23.901,0.013l23.9,0.013l19-1.104c10.45-0.607,33.4-2.219,51-3.582
	c17.601-1.363,35.15-2.851,39-3.306c3.851-0.455,15.101-1.797,25-2.981c9.9-1.185,20.25-2.527,23-2.982
	c2.75-0.456,10.176-1.566,16.5-2.468c6.325-0.901,13.525-2.058,16-2.569c2.476-0.512,8.775-1.675,14-2.585
	c5.226-0.909,17.375-3.214,27-5.122c9.625-1.907,26.275-5.512,37-8.011c10.726-2.499,20.851-4.912,22.5-5.363
	c1.65-0.451,5.925-1.56,9.5-2.463s7.175-1.819,8-2.035c0.825-0.217,6.45-1.794,12.5-3.505s12.351-3.487,14-3.948
	c1.65-0.46,6.15-1.811,10-3.001c3.851-1.191,8.351-2.525,10-2.966c1.65-0.44,10.498-3.289,19.662-6.332
	c9.164-3.042,25.589-8.774,36.5-12.737c10.911-3.964,20.288-7.543,20.838-7.955s2.8-1.323,5-2.024s6.334-2.335,9.187-3.631
	c2.852-1.295,5.464-2.354,5.805-2.354c0.34,0,2.507-0.854,4.813-1.896c2.308-1.043,7.12-3.12,10.695-4.615s8.3-3.53,10.5-4.521
	s10.976-5.022,19.5-8.958c8.525-3.935,24.5-11.792,35.5-17.459s27.425-14.565,36.5-19.774s21.129-12.352,26.786-15.873
	s11.058-6.862,12-7.423c0.943-0.562,3.562-2.214,5.819-3.672c2.259-1.458,9.684-6.575,16.5-11.372
	c6.817-4.797,15.77-11.245,19.895-14.329s8.4-6.356,9.5-7.272c1.101-0.916,3.955-3.278,6.345-5.25s4.711-3.584,5.159-3.584
	s4.118,2.729,8.155,6.063c4.038,3.335,8.016,6.602,8.841,7.259s7.575,5.501,15,10.765s17.128,12.011,21.562,14.992
	s8.934,5.954,10,6.604s7.339,4.532,13.938,8.627c6.601,4.094,18.525,11.15,26.5,15.682c7.976,4.531,23.05,12.655,33.5,18.055
	c10.45,5.398,26.425,13.251,35.5,17.449s18.3,8.452,20.5,9.453c2.2,1.002,6.925,3.044,10.5,4.538s8.876,3.796,11.78,5.115
	c2.903,1.319,5.851,2.398,6.55,2.398c0.698,0,1.697,0.395,2.22,0.876c0.523,0.482,3.65,1.852,6.95,3.044
	c3.3,1.191,7.351,2.768,9,3.503c1.65,0.734,8.851,3.468,16,6.073c7.15,2.605,16.375,5.954,20.5,7.442
	c4.125,1.487,14.7,5.018,23.5,7.845s20.5,6.508,26,8.181s14.05,4.211,19,5.641s10.351,2.959,12,3.399c1.65,0.44,9.3,2.397,17,4.35
	s19.625,4.903,26.5,6.557c6.875,1.654,20.105,4.604,29.401,6.556c9.295,1.951,22.12,4.497,28.5,5.657
	c6.379,1.161,13.624,2.459,16.099,2.886c2.476,0.426,10.575,1.71,18,2.853s16.425,2.555,20,3.139s14.15,1.965,23.5,3.068
	c9.351,1.104,20.601,2.431,25,2.949c4.4,0.519,12.726,1.386,18.5,1.927c5.775,0.54,14.101,1.223,18.5,1.516
	c4.4,0.293,14.525,0.979,22.5,1.527c7.976,0.547,22.15,1.455,31.5,2.017l17,1.022l24.395-0.013l24.394-0.014l-0.6,25.25
	c-0.33,13.887-1.071,38.524-1.648,54.75c-0.577,16.225-1.482,34.899-2.012,41.5c-0.529,6.6-1.243,17.399-1.585,24
	c-0.342,6.6-0.802,13.125-1.021,14.5s-0.867,8.574-1.438,16c-0.571,7.425-1.229,14.85-1.462,16.5
	c-0.232,1.649-0.898,8.175-1.479,14.5s-1.521,15.1-2.091,19.5c-0.568,4.399-1.471,11.375-2.004,15.5s-1.872,14.475-2.976,23
	c-1.104,8.524-2.442,17.975-2.977,21c-0.533,3.024-1.474,9.1-2.089,13.5c-0.614,4.399-1.302,8.899-1.527,10
	c-0.226,1.1-0.829,4.7-1.343,8c-0.513,3.3-1.605,9.825-2.428,14.5s-2.195,12.212-3.052,16.75c-0.856,4.537-2.209,11.737-3.007,16
	c-0.797,4.263-2.87,14.5-4.605,22.75s-3.799,17.925-4.585,21.5s-1.811,8.075-2.275,10s-1.782,7.55-2.927,12.5s-4.521,18.45-7.502,30
	s-6.627,25.5-8.1,31c-1.474,5.5-3.313,12.024-4.087,14.5c-0.774,2.475-3.713,12.149-6.53,21.5c-2.817,9.35-5.573,18.575-6.123,20.5
	s-4.143,12.95-7.983,24.5s-7.353,21.899-7.804,23c-0.451,1.1-2.253,6.05-4.003,11s-4.003,11.25-5.005,14
	c-1.003,2.75-4.614,12.2-8.025,21s-7.982,20.5-10.158,26c-2.175,5.5-6.471,15.85-9.547,23s-8.275,19.075-11.556,26.5
	c-3.279,7.425-7.763,17.325-9.962,22s-9.547,19.75-16.327,33.5c-6.781,13.75-14.97,29.95-18.197,36s-7.938,14.825-10.468,19.5
	s-6.363,11.65-8.521,15.5c-2.156,3.85-6.532,11.5-9.725,17s-10.841,18.325-16.997,28.5s-14.083,23-17.614,28.5
	c-3.532,5.5-11.979,18.325-18.772,28.5s-16.919,24.951-22.501,32.836c-5.583,7.885-17.3,23.859-26.038,35.5
	s-17.509,23.189-19.489,25.664c-1.979,2.475-5.855,7.226-8.611,10.557c-2.757,3.331-6.587,8.032-8.512,10.447
	s-8.213,10.04-13.974,16.943c-5.762,6.904-11.387,13.647-12.5,14.986c-1.114,1.338-4.276,4.974-7.026,8.079
	c-2.75,3.104-8.6,9.651-13,14.548c-4.399,4.896-14.3,15.621-22,23.832c-7.699,8.211-22.584,23.519-33.076,34.019
	c-10.493,10.499-26.018,25.623-34.5,33.61c-8.483,7.986-19.725,18.336-24.981,23c-5.256,4.663-12.646,11.179-16.423,14.479
	s-7.351,6.46-7.942,7.021c-0.592,0.563-6.505,5.512-13.139,11c-6.635,5.488-14.037,11.554-16.451,13.479
	c-2.413,1.925-5.761,4.661-7.438,6.081c-1.678,1.42-6.199,5.012-10.05,7.982c-3.85,2.97-15.111,11.482-25.026,18.918
	s-20.94,15.527-24.5,17.981c-3.561,2.455-7.068,5.043-7.795,5.75c-0.727,0.708-1.707,1.287-2.179,1.287
	c-0.471,0-1.451,0.579-2.179,1.286c-0.727,0.708-8.851,6.333-18.054,12.5c-9.203,6.168-17.153,11.214-17.667,11.214
	s-1.084,0.345-1.267,0.767c-0.184,0.421-3.483,2.694-7.334,5.051c-3.85,2.357-7.888,4.824-8.974,5.484
	c-1.086,0.659-4.605,2.886-7.821,4.948C722.991,1601.309,720.204,1602.997,720.014,1602.997z M720.504,1482.997
	c0.376,0,4.017-2.314,8.091-5.144c4.073-2.829,11.906-8.338,17.406-12.242s16.525-12.028,24.5-18.054
	c7.976-6.025,19-14.552,24.5-18.947c5.5-4.396,16.525-13.417,24.5-20.048c7.976-6.63,16.075-13.452,18-15.16s8-7.102,13.5-11.984
	c5.5-4.884,12.68-11.363,15.954-14.4c3.275-3.036,10.7-9.989,16.5-15.451c5.801-5.462,19.715-19.187,30.92-30.5
	s28.152-29.119,37.659-39.569s23.445-26.2,30.975-35c7.528-8.8,19.638-23.425,26.91-32.5s18.187-23.025,24.254-31
	s16.365-21.925,22.883-31s20.014-28.875,29.991-44c9.977-15.125,22.65-34.95,28.162-44.056c5.513-9.106,13.662-22.889,18.11-30.629
	c4.448-7.739,12.148-21.523,17.111-30.632s14.914-28.338,22.114-42.733s16.9-34.51,21.556-44.697
	c4.655-10.188,12.11-27.125,16.565-37.639c4.455-10.513,11.367-27.439,15.358-37.614c3.992-10.175,10.272-26.825,13.957-37
	c3.684-10.175,9.315-26.375,12.514-36s7.642-23.35,9.873-30.5c2.232-7.15,6.948-23.125,10.48-35.5
	c3.531-12.375,8.695-31.5,11.476-42.5c2.779-11,6.43-25.898,8.11-33.108c1.681-7.209,4.422-19.584,6.091-27.5
	c1.669-7.915,4.176-20.241,5.569-27.392c1.395-7.15,3.172-16.375,3.949-20.5s2.781-15.717,4.453-25.76s4.588-29.168,6.479-42.5
	s4.573-34.365,5.959-46.74c1.385-12.375,2.988-27.45,3.563-33.5s1.482-16.625,2.02-23.5s1.662-22.593,2.501-34.928l1.525-22.428
	l-1.271-0.807l-1.271-0.808l-5.211-0.015c-2.866-0.009-9.616-0.447-15-0.975c-5.384-0.528-15.189-1.449-21.789-2.047
	c-6.601-0.599-15.825-1.514-20.5-2.033c-4.675-0.521-15.925-1.866-25-2.991s-19.65-2.493-23.5-3.041
	c-3.851-0.548-9.7-1.417-13-1.933c-3.3-0.515-11.851-1.885-19-3.044c-7.15-1.159-17.726-2.998-23.5-4.086
	c-5.775-1.088-18.375-3.547-28-5.463s-20.2-4.115-23.5-4.886c-3.3-0.771-10.05-2.355-15-3.521s-12.825-3.03-17.5-4.143
	c-4.675-1.113-11.425-2.837-15-3.83c-3.575-0.994-11.9-3.241-18.5-4.994c-6.601-1.752-16.5-4.534-22-6.184
	c-5.5-1.648-19.226-5.935-30.5-9.524c-11.275-3.591-27.476-8.999-36-12.019c-8.525-3.02-22.476-8.169-31-11.444
	c-8.525-3.275-19.101-7.461-23.5-9.3c-4.4-1.839-12.05-5.036-17-7.104c-4.95-2.068-12.757-5.491-17.35-7.607
	c-4.592-2.116-8.487-3.848-8.657-3.848s-4.737-2.069-10.15-4.599c-5.414-2.53-17.731-8.543-27.373-13.362
	s-20.666-10.465-24.5-12.547c-3.833-2.081-11.92-6.494-17.97-9.807s-17.525-9.942-25.5-14.733s-19.225-11.688-25-15.325
	c-5.775-3.639-10.764-6.618-11.086-6.621c-0.323-0.003-5.272,2.979-11,6.625c-5.728,3.647-16.939,10.547-24.914,15.332
	s-19.675,11.54-26,15.012c-6.325,3.471-13.765,7.556-16.532,9.077c-2.768,1.521-11.992,6.245-20.5,10.499
	c-8.507,4.253-21.936,10.819-29.841,14.591c-7.905,3.772-14.512,6.858-14.681,6.858s-3.15,1.3-6.627,2.889
	c-3.476,1.59-9.47,4.249-13.319,5.91s-11.05,4.683-16,6.714c-4.95,2.032-12.375,5.007-16.5,6.612c-4.125,1.604-8.4,3.313-9.5,3.799
	c-1.1,0.484-4.7,1.869-8,3.076s-6.9,2.57-8,3.03c-1.1,0.459-5.883,2.225-10.629,3.923c-4.745,1.698-19.37,6.649-32.5,11.001
	c-13.129,4.353-33.321,10.621-44.871,13.929c-11.55,3.309-25.275,7.162-30.5,8.563c-5.225,1.401-15.8,4.077-23.5,5.945
	s-19.056,4.576-25.234,6.018s-21.254,4.613-33.5,7.049s-30.365,5.786-40.266,7.446c-9.899,1.661-27.45,4.365-39,6.01
	c-11.55,1.646-26.625,3.688-33.5,4.539c-6.875,0.851-24.649,2.669-39.5,4.041c-14.85,1.371-29.25,2.503-32,2.515l-5,0.022
	l-1.288,0.817l-1.287,0.817l1.036,15.917c0.569,8.755,1.51,22.218,2.09,29.918c0.579,7.7,1.722,21.425,2.538,30.5
	s2.383,24.6,3.48,34.499c1.099,9.899,3.574,29.475,5.501,43.5c1.928,14.025,5.305,36.301,7.505,49.501s4.698,27.601,5.553,32
	c0.854,4.4,2.892,14.75,4.529,23c1.637,8.25,4.969,23.886,7.403,34.745s6.426,27.734,8.87,37.5
	c2.443,9.766,6.225,24.28,8.402,32.255c2.179,7.976,6.025,21.53,8.55,30.124c2.524,8.593,6.187,20.743,8.138,27
	c1.952,6.257,6.73,20.826,10.618,32.376c3.889,11.55,11.038,31.575,15.889,44.5s10.376,27.325,12.278,32
	c1.903,4.675,5.805,14.125,8.67,21s6.571,15.65,8.236,19.5c1.664,3.851,6.625,14.875,11.022,24.5
	c4.398,9.625,14.226,29.968,21.839,45.205s15.511,30.763,17.551,34.5c2.039,3.737,8.07,14.67,13.402,24.295
	c5.333,9.625,15.961,27.851,23.618,40.5c7.657,12.65,17.957,29.223,22.889,36.828s14.093,21.331,20.358,30.5
	c6.266,9.17,16.56,23.801,22.875,32.514s16.901,22.888,23.524,31.5s17.908,22.858,25.077,31.658s13.294,16.225,13.612,16.5
	s4.165,4.761,8.549,9.969s14.462,16.683,22.396,25.5c7.933,8.817,18.508,20.304,23.5,25.524c4.991,5.222,17.625,18.046,28.075,28.5
	s25.525,25.049,33.5,32.434s16.524,15.273,19,17.529c2.475,2.256,10.8,9.498,18.5,16.094c7.7,6.597,19.171,16.258,25.49,21.472
	c6.319,5.213,12.17,10.014,13,10.667s3.984,3.152,7.01,5.553c3.025,2.401,10.225,7.953,16,12.338
	c5.775,4.386,16.125,12.061,23,17.055c6.875,4.995,16.509,11.846,21.409,15.225C715.811,1480.233,720.127,1482.997,720.504,1482.997
	L720.504,1482.997z M720.504,1357.997c-0.432,0-6.795-4.815-14.142-10.7c-7.348-5.885-17.634-14.295-22.858-18.688
	c-5.226-4.393-13.095-11.166-17.488-15.05c-4.394-3.885-9.759-8.638-11.923-10.563c-2.163-1.925-6.892-6.2-10.507-9.5
	s-12.606-11.85-19.98-19s-20.439-20.2-29.033-29c-8.595-8.8-19.23-19.825-23.635-24.5s-11.399-12.325-15.544-17
	s-11.786-13.45-16.98-19.5s-13.521-15.95-18.504-22s-13.774-17.075-19.538-24.5s-13.193-17.1-16.512-21.5
	s-10.688-14.525-16.377-22.5s-15.337-21.925-21.438-31s-13.953-20.983-17.449-26.464c-3.495-5.479-9.375-14.93-13.065-21
	s-9.859-16.437-13.71-23.036c-3.85-6.6-8.808-15.15-11.018-19s-7.682-13.776-12.158-22.058c-4.478-8.281-8.14-15.369-8.14-15.75
	v-0.692h350h350v0.662c0,0.364-4.805,9.478-10.676,20.25c-5.871,10.773-15.166,27.237-20.656,36.588
	c-5.49,9.35-14.48,24.2-19.978,33s-13.353,21.112-17.457,27.36c-4.104,6.248-11.076,16.598-15.494,23
	c-4.419,6.401-12.766,18.164-18.55,26.14c-5.783,7.975-15.717,21.25-22.073,29.5c-6.357,8.25-16.705,21.3-22.995,29
	c-6.291,7.7-15.304,18.467-20.029,23.927s-12.814,14.686-17.975,20.5c-5.16,5.815-12.32,13.724-15.91,17.573
	s-12.914,13.525-20.722,21.5c-7.807,7.975-20.673,20.808-28.59,28.518c-7.918,7.71-19.121,18.345-24.896,23.633
	c-5.774,5.288-14.565,13.155-19.535,17.482s-11.479,9.893-14.464,12.367s-7.02,5.886-8.965,7.579
	c-1.944,1.693-9.547,7.881-16.895,13.75C727.298,1353.195,720.935,1357.997,720.504,1357.997L720.504,1357.997z M476.004,891.827
	c-4.4-0.071-9.351-0.303-11-0.515c-1.65-0.212-6.15-1.075-10-1.919c-3.851-0.844-9.903-2.694-13.45-4.114
	c-3.548-1.419-8.948-4.049-12-5.844l-5.55-3.264l-6.276-5.695l-6.276-5.695l-4.435-6.214l-4.435-6.214l-4.038-8.428l-4.038-8.429
	l-2.477-9.78l-2.477-9.781l-1.137-11.219l-1.137-11.22l0.675-12.695l0.675-12.695l2.328-10.305l2.329-10.305l3.141-8.145
	l3.141-8.145l4.097-6.355c2.254-3.495,5.845-8.449,7.98-11.009l3.884-4.654l7.237-5.534l7.238-5.534l7.201-3.552l7.201-3.552
	l7.799-2.235l7.799-2.235l18-0.024l18-0.025l5,1.374c2.75,0.756,6.992,2.015,9.427,2.798c2.436,0.784,7.61,3.02,11.5,4.969
	l7.073,3.544l4.5,3.616c2.475,1.989,6.666,5.886,9.313,8.658l4.814,5.041l4.017,6.694l4.017,6.694l2.508,7.21l2.507,7.21
	l0.552,5.346l0.552,5.346h-19.69h-19.691l-1.512-3.75c-0.832-2.063-2.666-6.162-4.077-9.11l-2.564-5.361l-3.08-3.508
	c-1.694-1.929-4.895-4.653-7.113-6.054l-4.033-2.546l-6.009-1.828l-6.009-1.827l-8.847-0.009l-8.846-0.008l-5.322,1.547
	l-5.321,1.548l-5.902,3.814l-5.901,3.814l-3.513,4.388c-1.933,2.414-4.503,6.041-5.713,8.06c-1.211,2.02-3.257,6.776-4.547,10.57
	c-1.291,3.795-2.946,10.243-3.678,14.329l-1.332,7.43l0.08,13.5l0.08,13.5l1.695,7.867c0.932,4.327,2.804,10.853,4.159,14.5
	l2.465,6.633l4.946,6.724l4.945,6.724l5.404,3.588l5.404,3.588l4.87,1.47l4.871,1.469l7,0.572l7,0.573l6.771-1.594l6.771-1.594
	l4.024-2.054c2.213-1.129,5.802-3.659,7.975-5.622l3.951-3.569l3.396-5.638l3.396-5.637l1.79-5.75l1.79-5.75h19.817h19.817v1.948
	c0,1.072-1.172,5.685-2.604,10.25l-2.604,8.302l-4.397,8.558l-4.398,8.559l-5.372,6.513l-5.372,6.512l-6.376,4.831l-6.376,4.831
	l-7.203,3.357c-3.962,1.847-9.813,4.02-13,4.83c-3.188,0.81-8.947,1.922-12.797,2.471l-7,1L476.004,891.827L476.004,891.827z
	 M719.504,891.838c-4.676-0.056-11.426-0.45-15-0.876c-3.575-0.426-9.65-1.499-13.5-2.385c-3.851-0.885-9.476-2.587-12.5-3.783
	c-3.025-1.195-7.075-3.032-9-4.083c-1.926-1.051-5.832-3.697-8.682-5.88l-5.182-3.969l-4.015-5.204l-4.015-5.203l-3.022-6.478
	l-3.022-6.478l-1.531-7.315c-0.843-4.023-1.531-8.636-1.531-10.25V827h19.5h19.5v1.818c0,1,0.684,4.121,1.519,6.935l1.52,5.116
	l3.811,4.821l3.811,4.82l4.42,2.118c2.432,1.165,5.674,2.623,7.205,3.239l2.784,1.12l9.216,1.051l9.216,1.052l9-1.158l9-1.158
	l5-1.867l5-1.866l3.626-2.991l3.626-2.991l2.124-4.519l2.124-4.519v-4.543v-4.543l-1.352-3.233l-1.351-3.233l-3.534-3.104
	l-3.534-3.103l-6.865-2.547c-3.775-1.401-12.489-3.911-19.364-5.577c-6.875-1.667-16.55-3.956-21.5-5.087
	c-4.95-1.132-10.8-2.552-13-3.156s-6.7-2.006-10-3.116c-3.3-1.109-8.82-3.364-12.268-5.011l-6.268-2.994l-5.008-4.503l-5.009-4.503
	l-2.47-4.214c-1.358-2.318-3.389-6.879-4.512-10.135l-2.043-5.92l-0.563-9l-0.563-9l1.581-7.5l1.582-7.5l4.003-8.121l4.004-8.12
	l6.508-6.089l6.508-6.088l7.343-3.531l7.343-3.531l7.915-2.058l7.915-2.058l14.5-0.586l14.5-0.587l8.199,1.106l8.199,1.105
	l8.202,2.711l8.201,2.711l7.099,4.642l7.1,4.642l5.313,5.824l5.312,5.825l3.309,6.601c1.819,3.631,4.006,9.076,4.858,12.102
	c0.854,3.025,1.649,7.3,1.77,9.5s0.155,4.563,0.079,5.25l-0.14,1.25h-18.9h-18.9l-1.146-4.75l-1.146-4.75l-2.704-4.947l-2.704-4.947
	l-4.637-3.314l-4.636-3.314l-7.773-1.988L722.184,719h-7.291h-7.29l-5.3,1.125c-2.914,0.619-7.183,2.005-9.484,3.08l-4.185,1.954
	l-3.156,3.016l-3.156,3.017l-1.408,3.372l-1.409,3.372l0.021,4.782l0.022,4.782l1.861,4.099l1.861,4.099l2.925,2.083
	c1.607,1.145,4.698,2.758,6.866,3.584s17.68,4.89,34.469,9.03l30.526,7.526l6.974,2.609c3.836,1.436,8.942,3.755,11.348,5.154
	c2.406,1.4,6.157,4.155,8.335,6.123s5.299,5.523,6.936,7.902l2.975,4.323l2.092,5.733l2.092,5.733l0.066,12.5l0.066,12.5l-2.176,7
	l-2.177,7l-3.606,6c-1.983,3.3-5.04,7.508-6.792,9.351s-5.806,5.145-9.008,7.337l-5.823,3.986l-6.762,2.788
	c-3.719,1.533-9.691,3.522-13.273,4.421c-3.581,0.898-9.843,2.065-13.915,2.595l-7.404,0.961L719.504,891.838L719.504,891.838z
	 M960.504,887h-74v-98v-98h71.421h71.421l0.329,7.549c0.181,4.152,0.186,11.802,0.01,17l-0.318,9.451h-51.932h-51.931v21v21h48h48
	v17v17h-48h-48v25.384v25.383l2.25,0.604l2.25,0.603l52.25,0.014l52.25,0.015v17v17L960.504,887L960.504,887z"/>
<path id="path3046" inkscape:connector-curvature="0" fill="#00923F" d="M1072.11,642.251
	c-59.513-0.119-267.618-0.334-462.456-0.476c-194.838-0.143-354.25-0.444-354.25-0.671s-2.217-9.338-4.928-20.248
	c-2.71-10.911-6.096-25.237-7.523-31.838c-1.429-6.6-3.042-13.8-3.585-16c-0.544-2.199-2.568-12.1-4.499-22
	c-1.931-9.899-5.27-28.35-7.419-41c-2.149-12.649-4.826-29.3-5.948-37c-1.121-7.699-3.169-23.225-4.549-34.5
	c-1.381-11.274-2.734-22.406-3.009-24.736l-0.498-4.236l2.229-0.449c1.226-0.247,4.479-0.701,7.229-1.009
	c2.75-0.307,8.038-1.011,11.75-1.563c3.713-0.553,9.563-1.436,13-1.962c3.438-0.525,9.176-1.445,12.75-2.044
	c3.575-0.598,9.2-1.514,12.5-2.034s8.25-1.381,11-1.912s7.588-1.436,10.75-2.01s8.338-1.539,11.5-2.145
	c3.162-0.604,7.775-1.484,10.25-1.954c2.475-0.469,6.525-1.274,9-1.79c2.475-0.515,6.975-1.48,10-2.146s7.3-1.617,9.5-2.115
	s6.025-1.311,8.5-1.805c2.475-0.495,7.425-1.644,11-2.552c3.575-0.909,10.325-2.553,15-3.653c4.675-1.1,9.4-2.226,10.5-2.501
	c1.1-0.276,5.263-1.375,9.25-2.442s10.737-2.871,15-4.01c4.263-1.138,9.1-2.448,10.75-2.911c1.65-0.464,7.05-2.017,12-3.45
	c4.95-1.435,13.5-3.998,19-5.697c5.5-1.7,12.925-4,16.5-5.112s7.4-2.375,8.5-2.808c1.1-0.432,2.9-1.001,4-1.265s4.25-1.268,7-2.23
	s5.9-2.116,7-2.563c1.1-0.445,5.375-1.928,9.5-3.292c4.125-1.365,10.875-3.666,15-5.113s8.625-3.109,10-3.694
	c1.375-0.584,3.4-1.408,4.5-1.831s4.7-1.765,8-2.981s7.907-3.061,10.239-4.098c2.331-1.036,4.7-1.885,5.264-1.885
	s1.806-0.397,2.761-0.883c0.955-0.486,2.861-1.341,4.236-1.898c1.375-0.559,4.075-1.7,6-2.539c1.925-0.838,5.975-2.494,9-3.68
	s6.85-2.743,8.5-3.462c1.65-0.718,5.25-2.317,8-3.555c2.75-1.236,6.8-3.034,9-3.994s6.7-2.973,10-4.474
	c3.3-1.5,8.925-4.085,12.5-5.744c3.575-1.658,15.5-7.469,26.5-12.911s22.925-11.503,26.5-13.466s9.2-5.05,12.5-6.859
	s9.075-4.92,12.833-6.912l6.833-3.623h1.815h1.815l5.352,2.846c2.943,1.564,7.151,3.886,9.352,5.156
	c2.2,1.271,7.825,4.335,12.5,6.809c4.675,2.473,17.726,9.107,29,14.743c11.275,5.636,24.101,11.915,28.5,13.953
	c4.4,2.039,10.25,4.731,13,5.983c2.75,1.251,7.25,3.281,10,4.511c2.75,1.229,7.025,3.134,9.5,4.233c2.476,1.099,5.851,2.584,7.5,3.3
	c1.65,0.716,5.025,2.081,7.5,3.034c2.476,0.953,4.928,2.115,5.45,2.582c0.522,0.468,1.54,0.85,2.261,0.85
	c0.722,0,3.443,0.945,6.05,2.1c2.606,1.155,5.64,2.471,6.739,2.924c1.101,0.452,7.851,3.049,15,5.77c7.15,2.721,13.9,5.29,15,5.711
	c1.101,0.42,5.601,2.067,10,3.661c4.4,1.594,11.375,4.027,15.5,5.408s8.4,2.912,9.5,3.402c1.101,0.491,3.575,1.368,5.5,1.95
	s5.75,1.779,8.5,2.66c2.75,0.882,9.275,2.951,14.5,4.6c5.226,1.647,12.2,3.813,15.5,4.812s11.496,3.434,18.214,5.412
	s14.817,4.302,18,5.162s17.036,4.401,30.786,7.869s29.05,7.24,34,8.383s15.75,3.464,24,5.158s17.025,3.509,19.5,4.033
	c2.476,0.523,11.925,2.281,21,3.906c9.075,1.626,22.125,3.861,29,4.969s19.25,2.959,27.5,4.114
	c8.25,1.154,15.984,2.303,17.187,2.551l2.187,0.452l-0.409,3.246c-0.226,1.786-0.903,7.973-1.507,13.747
	c-0.603,5.775-1.994,17.025-3.09,25c-1.097,7.976-3.102,21.926-4.456,31c-1.354,9.075-4.267,26.625-6.472,39s-4.847,26.775-5.869,32
	c-1.022,5.226-3.675,17.841-5.894,28.035c-2.22,10.194-6.329,27.695-9.134,38.891c-2.804,11.194-5.33,20.73-5.614,21.189
	l-0.516,0.835L1072.11,642.251L1072.11,642.251z"/>
</svg>
